<svg fill="none" height="37" viewBox="0 0 240 37" width="240" xmlns="http://www.w3.org/2000/svg"><path d="m33.5816 31.8102c-.074 0-.1481.0386-.2221.0386-7.0707 1.0807-12.0312-4.2072-15.585-8.916-.2962-.3474-1.6289-1.351-2.8875-2.1229-.5183-.3474-.8885-.8877-.9996-1.5053-.111-.6176.0371-1.2737.4073-1.7755l2.4802-3.3966c.7404-1.0035 2.0731-1.1579 2.9986-.4245.9255.7719 1.1106 2.1614.4072 3.165l-1.0736 1.4667c.8145.5789 1.5919 1.2737 1.9991 1.814 3.2206 4.1686 6.8115 7.9511 11.661 7.2178 2.7024-.386 5.1086-1.8913 6.8115-4.1686 1.7029-2.2772 2.4803-5.0948 2.1841-7.9124-.2961-3.0878-1.7399-5.82826-4.0721-7.71953-2.3322-1.89128-5.2197-2.66323-8.1442-2.16146-1.1846.19299-2.2581-.65616-2.4803-1.89128-.148-1.23512.6664-2.35444 1.814-2.54743 4.0351-.656157 8.1812.46317 11.4389 3.0492 3.2947 2.66322 5.3307 6.4844 5.7379 10.8459.4072 4.0141-.7033 7.9511-3.0726 11.1547-2.3692 3.1263-5.6639 5.172-9.4028 5.7896z" fill="#b1dcfc"/><g fill="#53b2f7"><path d="m17.2562 31.0382c-4.9236.8106-9.88412-1.0035-13.25285-4.8246-3.479796-3.937-4.775464-9.302-3.553834-14.7829.925474-4.0527 3.479794-7.48788 7.033624-9.45635 4.36826-2.354445 8.55136-2.624627 12.47546-.69475 3.5908 1.77548 6.3673 5.09486 8.3663 7.75809.2961.34737 1.6288 1.35091 2.8875 2.12281.5182.3474.8884.8878.9995 1.5053.111.6176-.037 1.2738-.4072 1.7755l-2.4803 3.3966c-.7404 1.0035-2.0731 1.1579-2.9985.4246-.9255-.772-1.1106-2.1615-.4073-3.165l1.0736-1.4667c-.8144-.6176-1.5918-1.2737-1.999-1.8141-1.7399-2.31584-4.0721-5.13346-6.8486-6.48437-2.7024-1.35091-5.4418-1.11933-8.62541.61756-2.48028 1.38951-4.25719 3.78255-4.88652 6.52301-.88846 3.9755 0 7.8352 2.48028 10.6529 2.40624 2.7404 5.92305 4.0141 9.43985 3.4351 1.1846-.193 2.2582.6562 2.4803 1.8913.1851 1.2351-.6293 2.3931-1.7769 2.586z"/><path d="m68.4536 28.6393c-3.3688 0-6.0712-1.1579-8.0702-3.4352-1.999-2.2772-2.9615-5.4422-2.9615-9.4563 0-3.8212 1.0365-6.87038 3.1096-9.18623 2.073-2.31585 4.7754-3.47377 8.1442-3.47377 2.2952 0 4.2572.46317 5.96 1.42811.5183.30877.7404 1.00353.5183 1.58249l-.4442 1.19652c-.2591.69476-.9995.96494-1.5918.61756-1.4438-.73335-2.8875-1.11932-4.3313-1.11932-2.1471 0-3.8129.81054-5.0716 2.47023-1.2216 1.65971-1.8509 3.85971-1.8509 6.60021 0 2.8562.5923 5.0948 1.8139 6.6773 1.1846 1.5825 2.8875 2.3545 5.1086 2.3545 1.4808 0 2.9616-.3088 4.4423-.9264.7034-.3088 1.4808.1544 1.5918.9264l.1851 1.1193c.0741.5404-.1851 1.1193-.6663 1.3509-1.6659.8877-3.5909 1.2737-5.886 1.2737z"/><path d="m78.5228 26.9855v-23.08129c0-.65616.4812-1.19652 1.0735-1.23512l1.8139-.11579c.6664-.0386 1.2587.54036 1.2587 1.23512v4.05273c0 .27018 0 .96494-.037 2.16145-.037 1.1965-.037 1.7755-.037 1.8141 1.3697-1.7755 3.2206-2.66323 5.5528-2.66323 1.925 0 3.4428.57896 4.5164 1.77543 1.0735 1.1966 1.5918 3.0107 1.5918 5.4809v10.5371c0 .6947-.5183 1.2351-1.1846 1.2351h-1.814c-.6293 0-1.1846-.5789-1.1846-1.2351v-10.0353c0-1.5439-.2221-2.6247-.6663-3.358-.4443-.6948-1.2217-1.0808-2.2952-1.0808-.9255 0-1.7399.2702-2.4803.772-.7033.5018-1.2586 1.1579-1.6288 1.9299-.2592 1.0421-.3702 2.393-.3702 4.0527v7.7195c0 .6947-.5183 1.2351-1.1846 1.2351h-1.814c-.5923.0386-1.1105-.5018-1.1105-1.1965z"/><path d="m102.955 28.568c-1.628 0-2.924-.4632-3.9237-1.4281-.9995-.9649-1.4807-2.3158-1.4807-4.1299 0-1.9299.5923-3.358 1.7769-4.2843 1.1845-.9264 2.9615-1.5053 5.3305-1.7755.333-.0386.667-.0772 1.074-.1158.37-.0386.814-.0772 1.295-.1544.482-.0386.852-.0772 1.111-.1158v-.9649c0-1.1194-.259-1.9685-.74-2.4703-.482-.5017-1.222-.7719-2.221-.7719-1.148 0-2.555.2702-4.184.8491-.592.193-1.2583-.1158-1.4804-.7719-.037-.1158-.0741-.2316-.1111-.386-.037-.1158-.074-.2702-.111-.386-.2221-.6561.111-1.3895.7405-1.6211 1.74-.61753 3.554-.96491 5.516-.96491 2.332 0 4.035.54037 5.108 1.62111 1.074 1.0807 1.592 2.8562 1.592 5.2878v10.8845c0 .6948-.518 1.2351-1.184 1.2351h-1.074c-.518 0-.963-.3473-1.111-.8491-.037-.0772-.074-.193-.074-.2702-.222-.6947-.333-1.0807-.333-1.1193-.851.8877-1.703 1.5825-2.554 2.0071-.778.5017-1.777.6947-2.962.6947zm1.111-3.1264c.962 0 1.814-.2316 2.517-.7333.63-.4246 1.074-.9264 1.407-1.5053.111-.193.148-.386.148-.579v-3.3194c-.037 0-.296.0386-.814.0772-.519.0386-.815.0772-.852.0772-1.666.1544-2.924.5018-3.702 1.0035-.777.5404-1.184 1.351-1.184 2.5089 0 .7719.222 1.3895.666 1.8141.407.4245 1 .6561 1.814.6561z"/><path d="m123.353 28.5621c-1.185 0-2.147-.1544-2.962-.4631-.777-.3088-1.406-.772-1.851-1.4281-.444-.6562-.74-1.3896-.925-2.2773s-.259-1.9685-.259-3.2422v-8.7616h-1.592c-.666 0-1.222-.6176-1.148-1.3509.037-.6176.482-1.11934 1.074-1.15794l1.185-.11579c.481-.0386.888-.42457 1.036-.92634l.889-3.31938c.148-.54037.592-.92634 1.11-.92634h.481c.63 0 1.185.54036 1.185 1.23512v2.54743c0 .69475.518 1.23512 1.185 1.23512h1.999c.629 0 1.184.57892 1.184 1.23512v.193c0 .6947-.518 1.2351-1.184 1.2351h-1.999c-.63 0-1.185.579-1.185 1.2351v7.6423c0 1.4281.185 2.4317.555 3.0106.37.579 1.074.8878 2.11.8878.222 0 .482 0 .704-.0386.666-.0386 1.221.5017 1.258 1.1965 0 .4632.037.9649.037 1.4667v.2702c0 .0772.037.1158-.037.1158-.111.0386-.259.0386-.333.0772-.222.0386-.481.0772-.666.1543-.222.0386-.481.0772-.815.1158-.407.1158-.74.1544-1.036.1544z"/><path d="m129.535 26.9855v-22.34794c0-.69476.518-1.23512 1.185-1.23512h1.962c.629 0 1.184.57896 1.184 1.23512v18.68114c0 .6948.519 1.2351 1.185 1.2351h7.33c.666 0 1.184.579 1.184 1.3124l-.037 1.1579c-.037.6561-.555 1.1965-1.184 1.1965h-11.661c-.63 0-1.148-.5404-1.148-1.2351z"/><path d="m146.157 5.9499v-1.89128c0-.54036.407-.96493.888-.96493h2.369c.482 0 .889.42457.889.96493v1.89128c0 .54036-.407.96493-.889.96493h-2.369c-.481-.03859-.888-.46317-.888-.96493zm0 22.2707v-17.639c0-.5404.407-.96494.888-.96494h2.369c.482 0 .889.42454.889.96494v16.7127c0 .5404-.407.9649-.889.9649h-3.257z"/><path d="m154.634 27.2557v-16.6741c0-.5404.407-.96497.888-.96497h1.703c.408 0 .778.30878.889.77197.148.6947.888 1.0035 1.407.5789 1.48-1.19648 3.072-1.77545 4.812-1.77545 2.036 0 3.554.61756 4.553 1.89125 1 1.2351 1.518 3.0492 1.518 5.4423v10.8073c0 .5403-.407.9649-.888.9649h-2.37c-.481 0-.888-.4246-.888-.9649v-10.3442c0-1.5053-.222-2.6246-.666-3.3579-.445-.7334-1.222-1.1194-2.407-1.1194-.888 0-1.702.2316-2.443.7334-.74.5018-1.296 1.1193-1.629 1.8527-.185.8877-.296 2.2386-.296 4.0527v8.1055c0 .5403-.407.9649-.888.9649h-2.37c-.518 0-.925-.4246-.925-.9649z"/><path d="m177.919 35.6699-.111-1.6596c-.037-.5404.37-1.0422.888-1.0422h1.148c2.443 0 4.146-.3474 5.109-1.0421.962-.6948 1.443-1.9685 1.443-3.8212 0-.7719-.037-1.5825-.111-2.4702-.259.386-.518.7334-.777 1.0035-.259.2702-.555.5404-.926.772-.37.2702-.814.4632-1.332.5789-.519.1158-1.111.193-1.777.193-2.295 0-4.183-.8877-5.664-2.6632s-2.221-4.0527-2.221-6.8703c0-1.5053.222-2.8562.629-4.0914.407-1.2351.963-2.2386 1.666-3.0106.703-.7719 1.518-1.3895 2.443-1.81405.926-.42457 1.888-.65616 2.962-.65616 1.74 0 3.146.50177 4.257 1.54391.444.386 1.111.1544 1.185-.4246.037-.38595.333-.65614.703-.65614h2.406c.37 0 .704.34738.704.73334v16.5583c0 .9264-.038 1.7755-.112 2.5089-.074.7333-.222 1.4667-.444 2.1228-.222.6948-.481 1.2737-.814 1.7755s-.778.9649-1.296 1.3895-1.11.772-1.814 1.0421c-.703.2702-1.518.4632-2.443.6176-.926.1544-1.962.2316-3.147.2316h-1.666c-.481.0386-.851-.3474-.888-.8492zm4.22-10.5371c2.851 0 4.294-2.0456 4.331-6.137v-.6561c-.037-1.8527-.37-3.2808-1.073-4.2843-.704-1.0036-1.703-1.5053-3.073-1.5439-1.517 0-2.665.5403-3.442 1.6597-.778 1.1193-1.185 2.6246-1.185 4.5159 0 1.814.407 3.3579 1.185 4.5545.777 1.2737 1.887 1.8912 3.257 1.8912z"/><path d="m207.09 26.7539c-1.37 1.1966-3.221 1.8141-5.442 1.8141-2.258 0-4.072-.6175-5.442-1.8141-1.369-1.1965-2.073-2.972-2.073-5.3264v-10.7301c0-.579.445-1.08073 1-1.08073h2.147c.555 0 .999.50173.999 1.08073v10.5757c0 1.3895.26 2.393.815 3.0106s1.407.9263 2.591.9263c1.148 0 1.999-.3087 2.555-.9263.518-.6176.814-1.6211.814-3.0106v-10.5757c0-.579.444-1.08073.999-1.08073h2.111c.555 0 .999.50173.999 1.08073v10.7687c0 2.3158-.703 4.0913-2.073 5.2878z"/><path d="m217.529 28.568c-1.628 0-2.924-.4632-3.924-1.4281-.999-.965-1.48-2.3159-1.48-4.1299 0-1.9299.592-3.358 1.777-4.2844 1.184-.9263 2.961-1.5053 5.33-1.7754.333-.0386.667-.0772 1.074-.1158.37-.0386.814-.0772 1.296-.1544h.222c.518-.0386.925-.5018.925-1.0808 0-1.1193-.259-1.9684-.74-2.4702-.482-.5018-1.222-.7719-2.221-.7719-1.185 0-2.629.3087-4.295.9263-.518.193-1.073-.1158-1.258-.6562-.037-.1543-.111-.3473-.185-.5403s-.111-.386-.185-.5404c-.186-.5789.074-1.1965.629-1.3895 1.777-.65615 3.665-1.00353 5.664-1.00353 2.332 0 4.035.54037 5.108 1.62113 1.074 1.0807 1.592 2.8562 1.592 5.2878v11.0775c0 .6175-.444 1.0807-.999 1.0807h-1.333c-.444 0-.814-.3088-.962-.7333-.037-.1158-.075-.2702-.112-.386-.222-.6948-.333-1.0807-.333-1.1193-.851.8877-1.703 1.5825-2.554 2.007-.851.386-1.851.579-3.036.579zm1.111-3.1264c.962 0 1.814-.2316 2.517-.7334.63-.4245 1.111-.9649 1.407-1.5439.074-.1543.111-.3473.111-.5017v-3.358c-.037 0-.296.0386-.814.0772-.519.0386-.815.0772-.852.0772-1.666.1544-2.924.5018-3.702 1.0035-.777.5404-1.184 1.3509-1.184 2.5089 0 .7719.222 1.3895.666 1.814.444.4246 1.074.6562 1.851.6562z"/><path d="m237.113 28.4908c-1.185 0-2.185-.1544-2.962-.4632s-1.407-.7719-1.851-1.4281c-.444-.6561-.777-1.4281-.962-2.3544-.186-.8878-.26-2.0457-.26-3.358v-16.98289c0-.65616.482-1.19652 1.111-1.23512l1.814-.11579c.666-.0386 1.259.54036 1.259 1.23512v17.02148c0 1.6597.185 2.8176.555 3.3966.37.5789 1.073.8877 2.147.8877.222 0 .481 0 .777-.0386.667-.0386 1.259.5018 1.259 1.1965v1.7369s-.074.1158-.333.1544-.481.1158-.704.1544c-.222.0386-.518.0772-.851.1158-.407.0386-.703.0772-.999.0772z"/></g></svg>